<svg xmlns="http://www.w3.org/2000/svg" viewBox="0 0 380.72 94.98"><defs><style>.cls-1{fill:#fff;}</style></defs><g id="Layer_2" data-name="Layer 2"><g id="Layer_1-2" data-name="Layer 1"><path class="cls-1" d="M46.9,0A47.23,47.23,0,0,0,0,43.68L25.22,54.2a13.2,13.2,0,0,1,7.5-2.33c.25,0,.5,0,.74,0L44.68,35.48v-.23A17.75,17.75,0,1,1,62.43,53.16H62L46,64.67c0,.21,0,.43,0,.64A13.31,13.31,0,0,1,19.66,68l-18-7.53A47,47,0,0,0,94,47.49,47.28,47.28,0,0,0,46.9,0"/><path class="cls-1" d="M29.49,72.06l-5.78-2.41a10,10,0,1,0,5.47-13.8l6,2.5a7.45,7.45,0,0,1,4,9.71,7.34,7.34,0,0,1-9.63,4"/><path class="cls-1" d="M53.56,35.23a8.89,8.89,0,1,1,8.88,9,8.93,8.93,0,0,1-8.88-9m20.69,0A11.83,11.83,0,1,0,62.43,47.18,11.89,11.89,0,0,0,74.25,35.25"/><path class="cls-1" d="M157.92,30.5l-4.18,7.42a20.85,20.85,0,0,0-11.4-3.64c-4.36,0-7.05,1.82-7.05,5.08,0,4,4.79,4.88,11.9,7.46,7.65,2.73,12.05,5.94,12.05,13,0,9.67-7.54,15.11-18.37,15.11a33.12,33.12,0,0,1-16.55-4.38l3.05-8.23a28.72,28.72,0,0,0,13,3.38c5.71,0,8.43-2.13,8.43-5.28,0-3.6-4.14-4.68-10.83-6.92C130.33,50.94,125,47.57,125,39.75c0-8.83,7-13.89,17.08-13.89,7,0,12.67,2.24,15.8,4.64"/><polygon class="cls-1" points="190.61 35.19 190.61 74.12 180.77 74.12 180.77 35.19 166.47 35.19 166.47 26.67 204.86 26.67 204.86 35.19 190.61 35.19"/><polygon class="cls-1" points="225.63 35.17 225.63 45.86 244.47 45.86 244.47 54.38 225.63 54.38 225.63 65.52 247.49 65.52 247.49 74.12 215.78 74.12 215.78 26.67 247.49 26.67 247.49 35.17 225.63 35.17"/><path class="cls-1" d="M278.57,38l-6.42,19h13Zm-9.1,26.92-3.11,9.21H256l17.64-47.45h9.91l18.13,47.45H291l-3.18-9.21Z"/><polygon class="cls-1" points="352.25 45.01 339.38 72.74 333.82 72.74 321.16 45.26 321.16 74.12 311.73 74.12 311.73 26.67 321.14 26.67 336.95 60.92 352.19 26.67 361.68 26.67 361.68 74.12 352.25 74.12 352.25 45.01"/><path class="cls-1" d="M373.09,32.32h1.15a1.08,1.08,0,0,0,1.19-1.07c0-.59-.32-1-1.19-1h-1.15Zm1.22-3c1.68,0,2.25.9,2.25,1.88A2,2,0,0,1,375.4,33l1.51,2.86h-1.24l-1.27-2.54h-1.32v2.54h-1V29.28Zm-5.52,3.38a5.42,5.42,0,1,0,10.83,0,5.42,5.42,0,1,0-10.83,0m11.93,0a6.52,6.52,0,1,1-13,0,6.52,6.52,0,1,1,13,0"/></g></g></svg>