<svg xmlns="http://www.w3.org/2000/svg" viewBox="0 0 84.95 103.08"><defs><style>.cls-1{fill:#e6e6e6;}.cls-2{fill:#ffa913;}.cls-3{fill:#9ad696;}.cls-4{fill:#6fad67;}.cls-5{fill:#62985b;}.cls-6{fill:#83c87e;}.cls-7{fill:none;}.cls-8{opacity:0.19;}.cls-9{fill:#36704e;}.cls-10{fill:#c1ffbf;}</style></defs><g id="Layer_2" data-name="Layer 2"><g id="Layer_1-2" data-name="Layer 1"><polygon class="cls-1" points="25.93 50.71 25.93 88.52 20.45 83.69 20.45 50.71 25.93 50.71"/><polygon class="cls-1" points="64.51 50.71 64.51 83.69 59.02 88.52 59.02 50.71 64.51 50.71"/><polygon class="cls-2" points="59.02 52 59.02 88.52 42.48 103.08 25.93 88.52 25.93 51.67 59.02 52"/><polygon class="cls-3" points="27.87 32.25 17.64 42.48 0.01 42.47 19.05 23.43 27.87 32.25"/><polygon class="cls-3" points="17.64 42.48 0.01 42.48 0 42.47 0.01 42.47 17.64 42.48"/><polygon class="cls-3" points="42.48 17.64 32.25 27.87 23.43 19.05 42.47 0 42.48 17.64"/><polygon class="cls-4" points="84.94 42.47 67.31 42.48 57.08 32.25 65.9 23.43 84.94 42.47"/><polygon class="cls-4" points="61.52 19.05 52.7 27.87 42.48 17.64 42.47 0 61.52 19.05"/><polygon class="cls-4" points="84.94 42.47 84.94 42.48 67.31 42.48 84.94 42.47"/><polygon class="cls-5" points="42.48 17.64 42.48 42.48 17.64 42.48 42.48 17.64"/><polygon class="cls-6" points="67.31 42.48 42.48 42.48 42.48 17.64 67.31 42.48"/><line class="cls-7" x1="42.48" y1="17.64" x2="17.64" y2="42.48"/><polygon class="cls-8" points="64.51 51.25 64.51 69.69 42.47 91.08 20.44 69.69 20.44 51.25 64.51 51.25"/><polygon class="cls-9" points="61.52 65.9 42.47 84.95 42.48 67.31 52.71 57.09 61.52 65.9"/><polygon class="cls-9" points="84.94 42.48 65.9 61.52 57.09 52.71 67.31 42.48 84.94 42.48"/><polygon class="cls-9" points="84.95 42.47 84.94 42.48 67.31 42.48 84.94 42.47 84.95 42.47"/><polygon class="cls-4" points="27.87 52.7 19.05 61.52 0.01 42.48 17.64 42.48 27.87 52.7"/><polygon class="cls-4" points="0.01 42.47 17.64 42.48 0.01 42.48 0 42.47 0.01 42.47"/><polygon class="cls-4" points="42.48 67.31 42.47 84.95 23.43 65.9 32.25 57.08 42.48 67.31"/><polygon class="cls-3" points="67.31 42.48 42.48 67.31 42.48 42.48 67.31 42.48"/><polygon class="cls-6" points="42.48 42.48 42.48 67.31 17.64 42.48 42.48 42.48"/><rect class="cls-10" x="37.21" y="37.2" width="10.54" height="10.54" transform="translate(-17.59 42.47) rotate(-45)"/></g></g></svg>