<svg xmlns="http://www.w3.org/2000/svg" viewBox="0 0 84.96 103.08"><defs><style>.cls-1{fill:#6b56a3;}.cls-2{fill:#2e2977;}.cls-3{fill:#d2d2d2;}.cls-4{fill:#9e9e9e;}.cls-5{fill:#959595;}.cls-6{fill:#b7b7b7;}.cls-7{fill:none;}.cls-8{opacity:0.19;}.cls-9{fill:#676767;}.cls-10{fill:#707070;}.cls-11{fill:#b6b6b6;}</style></defs><g id="Layer_2" data-name="Layer 2"><g id="Layer_1-2" data-name="Layer 1"><polygon class="cls-1" points="30.06 62.71 30.06 92.15 20.45 83.69 20.45 62.71 30.06 62.71"/><polygon class="cls-1" points="64.51 62.71 64.51 83.69 54.9 92.15 54.9 62.71 64.51 62.71"/><polygon class="cls-2" points="54.9 62.71 54.9 92.15 42.48 103.08 30.06 92.15 30.06 62.71 54.9 62.71"/><polyline class="cls-3" points="0 42.48 42.48 0 42.48 17.64 17.64 42.48 0 42.48"/><polygon class="cls-4" points="84.96 42.48 67.32 42.48 42.48 17.64 42.48 0 84.96 42.48"/><polygon class="cls-5" points="42.48 17.64 42.48 42.48 17.64 42.48 42.48 17.64"/><polygon class="cls-6" points="67.32 42.48 42.48 42.48 42.48 17.64 67.32 42.48"/><line class="cls-7" x1="42.48" y1="17.64" x2="17.64" y2="42.48"/><polygon class="cls-8" points="64.51 62.26 64.51 69.69 42.48 91.08 20.45 69.69 20.45 62.26 64.51 62.26"/><polygon class="cls-9" points="84.95 42.48 42.48 84.95 42.48 67.32 67.32 42.48 84.95 42.48"/><polyline class="cls-10" points="0 42.48 17.64 42.48 42.48 67.32 42.48 84.95 0 42.48"/><polygon class="cls-3" points="67.32 42.48 42.48 67.32 42.48 42.48 67.32 42.48"/><polygon class="cls-11" points="42.48 42.48 42.48 67.32 17.64 42.48 42.48 42.48"/><rect class="cls-2" x="37.21" y="37.21" width="10.54" height="10.54" transform="translate(-17.59 42.48) rotate(-45)"/></g></g></svg>