<svg xmlns="http://www.w3.org/2000/svg" viewBox="0 0 84.97 105.21"><defs><style>.cls-1{fill:#ea8ee0;}.cls-2{fill:#e8439f;}.cls-3{fill:#e6e6e6;}.cls-4{opacity:0.19;}.cls-5{fill:#fd83c3;}.cls-6{fill:#db1c8f;}.cls-7{fill:#db1e90;}.cls-8{fill:#707070;}.cls-9{fill:#efa6ec;}.cls-10{fill:#9b0661;}.cls-11{fill:#ffaad9;}.cls-12{fill:none;}.cls-13{fill:#f85595;}.cls-14{fill:#f4cef9;}</style></defs><g id="Layer_2" data-name="Layer 2"><g id="Layer_1-2" data-name="Layer 1"><polygon class="cls-1" points="68.12 105.21 42.48 77.72 16.84 105.21 16.84 72.51 68.12 72.51 68.12 105.21"/><polygon class="cls-2" points="58.87 62.72 58.87 76.67 58.87 90.79 64.51 85.81 64.51 62.72 58.87 62.72"/><polygon class="cls-2" points="26.1 62.72 26.1 76.67 26.1 90.79 20.45 85.81 20.45 62.72 26.1 62.72"/><polygon class="cls-3" points="52.63 96.27 58.87 90.79 58.87 62.72 52.63 62.72 52.63 96.27"/><polygon class="cls-3" points="32.33 96.28 26.1 90.79 26.1 62.72 32.33 62.72 32.33 96.28"/><polygon class="cls-2" points="52.63 62.72 52.63 96.27 42.48 105.21 32.33 96.28 32.33 62.72 52.63 62.72"/><polygon class="cls-4" points="64.51 64.26 64.51 71.7 42.48 93.08 20.45 71.7 20.45 64.26 64.51 64.26"/><polygon class="cls-5" points="72.52 12.44 72.52 30.04 63.72 21.24 72.52 12.44"/><polygon class="cls-6" points="72.52 12.44 63.72 21.24 54.92 12.44 72.52 12.44"/><polygon class="cls-5" points="30.04 12.44 21.24 21.24 12.44 12.44 30.04 12.44"/><polygon class="cls-7" points="21.24 21.24 12.44 30.04 12.44 12.44 21.24 21.24"/><polygon class="cls-7" points="30.03 72.51 12.45 72.51 21.24 63.72 30.03 72.51"/><polygon class="cls-7" points="72.52 54.92 72.52 72.51 63.72 63.72 72.52 54.92"/><polygon class="cls-8" points="72.52 30.04 72.52 54.92 63.72 63.72 54.93 72.51 30.03 72.51 12.45 54.93 12.45 42.48 12.44 30.04 21.24 21.24 30.04 12.44 54.92 12.44 72.52 30.04"/><polygon class="cls-9" points="42.48 0 42.48 17.64 30.06 30.06 17.64 42.48 0 42.48 12.44 30.04 21.24 21.24 42.48 0"/><polygon class="cls-2" points="84.96 42.48 67.32 42.48 42.48 17.64 42.48 0 84.96 42.48"/><polygon class="cls-10" points="42.48 17.64 42.48 42.48 17.64 42.48 42.48 17.64"/><polygon class="cls-11" points="67.32 42.48 42.48 42.48 42.48 17.64 67.32 42.48"/><line class="cls-12" x1="42.48" y1="17.64" x2="17.64" y2="42.48"/><polygon class="cls-10" points="84.96 42.48 72.52 54.92 63.72 63.72 42.48 84.96 42.48 67.32 54.9 54.9 67.32 42.48 84.96 42.48"/><polygon class="cls-2" points="42.48 67.32 42.48 84.96 0 42.48 17.64 42.48 42.48 67.32"/><polygon class="cls-13" points="67.32 42.48 42.48 67.32 42.48 42.48 67.32 42.48"/><polygon class="cls-11" points="42.48 42.48 42.48 67.32 17.64 42.48 42.48 42.48"/><rect class="cls-3" x="37.21" y="37.21" width="10.54" height="10.54" transform="translate(-17.6 42.48) rotate(-45)"/><polygon class="cls-5" points="72.52 72.51 54.93 72.51 63.72 63.72 72.52 72.51"/><polyline class="cls-12" points="21.24 21.24 30.06 30.06 42.48 42.48 54.9 54.9 63.72 63.72"/><polygon class="cls-5" points="21.24 63.72 12.45 72.51 12.45 54.93 21.24 63.72"/><polyline class="cls-12" points="63.72 21.24 54.9 30.06 42.48 42.48 30.06 54.9 21.24 63.72"/><polygon class="cls-14" points="12.45 12.44 12.45 24.89 0 12.44 12.45 12.44"/><polygon class="cls-14" points="72.52 12.44 72.52 24.89 84.97 12.44 72.52 12.44"/></g></g></svg>