<svg xmlns="http://www.w3.org/2000/svg" viewBox="0 0 84.86 99.43"><defs><style>.cls-1{fill:#b7b7b7;}.cls-2{fill:#f6f6f6;}.cls-3{fill:#9e9e9e;}.cls-4{fill:#d2d2d2;}.cls-5{fill:#e6e6e6;}.cls-6{opacity:0.19;}.cls-7{fill:#707070;}.cls-8{fill:#676767;}</style></defs><g id="Layer_2" data-name="Layer 2"><g id="Layer_1-2" data-name="Layer 1"><polygon class="cls-1" points="42.43 84.43 42.43 92.43 19.43 99.43 19.43 61.43 42.43 84.43"/><polygon class="cls-2" points="65.43 61.43 65.43 99.43 42.43 92.43 42.43 84.43 65.43 61.43"/><polygon class="cls-3" points="84.86 42.43 56.43 42.43 42.43 28.43 42.43 0 84.86 42.43"/><polygon class="cls-4" points="42.43 0 42.43 28.43 28.43 42.43 0 42.43 42.43 0"/><rect class="cls-5" x="32.53" y="32.53" width="19.8" height="19.8" transform="translate(-17.58 42.43) rotate(-45)"/><polygon class="cls-6" points="65.43 61.43 65.43 69.43 42.43 92.43 19.43 69.43 19.43 61.43 65.43 61.43"/><polygon class="cls-7" points="42.43 56.43 42.43 84.86 0 42.43 28.43 42.43 42.43 56.43"/><polygon class="cls-8" points="84.86 42.43 42.43 84.86 42.43 56.43 56.43 42.43 84.86 42.43"/></g></g></svg>